<?xml version="1.0" standalone="no"?>
<svg viewBox="0 0 200 200" xmlns="http://www.w3.org/2000/svg">
  <path fill="#B240F4" d="M44.6,-75.6C58.3,-69.4,70.3,-58.4,77.4,-45C84.6,-31.6,87,-15.8,87.5,0.3C88,16.4,86.5,32.7,77.9,43.7C69.4,54.7,53.7,60.2,39.5,66.2C25.3,72.2,12.7,78.5,-1.2,80.5C-15,82.5,-30,80.2,-42.6,73.3C-55.2,66.5,-65.5,55.1,-71.3,42.1C-77.1,29.2,-78.5,14.6,-79.9,-0.8C-81.3,-16.2,-82.8,-32.4,-75.8,-43.4C-68.8,-54.3,-53.4,-60,-39.3,-66.1C-25.3,-72.1,-12.6,-78.5,1.4,-80.9C15.5,-83.3,30.9,-81.8,44.6,-75.6Z" transform="translate(100 100)" />
</svg>
